<svg width="21" height="20" viewBox="0 0 21 20" fill="none" xmlns="http://www.w3.org/2000/svg">
<path fill-rule="evenodd" clip-rule="evenodd" d="M13.5938 11H11.5938V13C11.5938 13.55 11.1437 14 10.5938 14C10.0437 14 9.59375 13.55 9.59375 13V11H7.59375C7.04375 11 6.59375 10.55 6.59375 10C6.59375 9.45 7.04375 9 7.59375 9H9.59375V7C9.59375 6.45 10.0437 6 10.5938 6C11.1437 6 11.5938 6.45 11.5938 7V9H13.5938C14.1437 9 14.5938 9.45 14.5938 10C14.5938 10.55 14.1437 11 13.5938 11ZM10.5938 0C5.07975 0 0.59375 4.486 0.59375 10C0.59375 15.514 5.07975 20 10.5938 20C16.1077 20 20.5938 15.514 20.5938 10C20.5938 4.486 16.1077 0 10.5938 0Z" fill="white"/>
</svg>
