<svg width="32" height="32" viewBox="0 0 32 32" fill="none" xmlns="http://www.w3.org/2000/svg">
<path d="M14.6667 2.66663C20.0907 2.66663 24.568 6.71463 25.2453 11.9533L28.2453 16.672C28.4427 16.9826 28.4027 17.4453 27.9453 17.6426L25.3333 18.76V22.6666C25.3333 24.14 24.14 25.3333 22.6667 25.3333H20.0013L20 29.3333H8V24.408C8 22.8346 7.41867 21.3453 6.34133 20.0013C4.876 18.1746 4 15.856 4 13.3333C4 7.44263 8.776 2.66663 14.6667 2.66663ZM13.96 10.3506C13.048 9.43863 11.5707 9.43863 10.66 10.3506C9.748 11.2613 9.748 12.7386 10.66 13.6493L14.6667 17.6573L18.6733 13.6493C19.5853 12.7386 19.5853 11.2613 18.6733 10.3506C17.7627 9.43863 16.2853 9.43863 15.3733 10.3506L14.6667 11.0573L13.96 10.3506Z" fill="#00995D"/>
</svg>
