<svg width="14" height="14" viewBox="0 0 14 14" fill="none" xmlns="http://www.w3.org/2000/svg">
<path fill-rule="evenodd" clip-rule="evenodd" d="M6.98915 2.29242L1.62715 6.60742C1.19715 6.95342 0.568149 6.88542 0.221149 6.45542C-0.124851 6.02442 -0.0568506 5.39542 0.373149 5.04842L6.37315 0.220422C6.74415 -0.0775784 7.27415 -0.0745784 7.64015 0.232422L13.6401 5.23242C14.0651 5.58542 14.1221 6.21542 13.7681 6.64042C13.5701 6.87742 13.2861 7.00042 13.0001 7.00042C12.7741 7.00042 12.5471 6.92342 12.3601 6.76842L6.98915 2.29242ZM6.37325 7.22092C6.74425 6.92192 7.27425 6.92592 7.64025 7.23192L13.6402 12.2319C14.0642 12.5859 14.1212 13.2159 13.7682 13.6399C13.5702 13.8779 13.2862 13.9999 12.9992 13.9999C12.7742 13.9999 12.5472 13.9239 12.3602 13.7679L6.98925 9.29292L1.62725 13.6069C1.19725 13.9539 0.568248 13.8859 0.221248 13.4549C-0.125752 13.0249 -0.0567516 12.3959 0.373248 12.0489L6.37325 7.22092Z" fill="#212121"/>
</svg>
